<svg 
  width="1022" 
  height="1022" 
  viewBox="0 0 1022 1022" 
  fill="none" 
  xmlns="http://www.w3.org/2000/svg"
>
  <path 
    fill-rule="evenodd" 
    clip-rule="evenodd" 
    d="M485.389 84.1765C309.772 97.213 162.762 209.862 106.004 374.885C95.6961 404.853 85.082 454.334 85.082 472.409V476.432H216.058H347.038L348.506 469.759C354.832 441.001 376.425 405.926 400.613 385.114C492.087 306.408 631.695 344.609 670.152 458.862C672.651 466.292 674.704 473.283 674.713 474.4C674.731 476.322 681.895 476.432 808.795 476.432C925.083 476.432 942.861 476.209 942.858 474.75C942.858 457.899 932.77 409.304 923.107 379.603C862.795 194.256 678.463 69.8477 485.389 84.1765Z"
    fill="#F71B1B"
  />
  <path 
    fill-rule="evenodd" 
    clip-rule="evenodd" 
    d="M496.559 413.819C430.688 424.149 393.482 495.555 423.122 554.766C459.466 627.364 562.954 627.117 599.336 554.347C634.067 484.89 573.285 401.784 496.559 413.819ZM79.7755 553.896C105.092 812.492 361.265 990.436 614.892 925.595C787.876 881.37 920.983 728.046 936.565 555.054L937.376 546.061H806.055C681.765 546.061 674.731 546.171 674.714 548.093C674.568 565.458 650.87 608.079 629.419 629.559C538.243 720.859 376.057 676.503 348.521 552.734L347.038 546.061H213.022H79.0059L79.7755 553.896Z"
    fill="#F7F7F7"
  />
  <path 
    fill-rule="evenodd" 
    clip-rule="evenodd" 
    d="M469.862 1.80738C169.771 27.9041 -41.3191 298.523 6.85724 595.385C58.6469 914.517 396.604 1105.35 699.105 986.277C1018.65 860.497 1124.84 457.971 909.066 190.364C803.739 59.7317 635.296 -12.5809 469.862 1.80738ZM564.462 85.9026C745.694 107.751 893.124 239.949 933.981 417.245C938.207 435.582 942.842 464.227 942.851 472.08L942.86 476.432H808.838H674.819L673.574 471.497C647.256 367.384 531.984 313.907 436.611 361.567C394.295 382.717 361.748 422.114 349.634 466.857L347.04 476.432H215.427H83.8152L84.4095 472.659C84.7364 470.585 85.5654 464.189 86.2489 458.443C110.214 257.346 277.329 100.288 484.951 83.7339C497.99 82.697 549.515 84.0993 564.462 85.9026ZM537.549 416.024C622.09 440.228 635.406 555.37 558.546 597.578C494.499 632.754 416.658 588.813 412.765 515.286C409.262 449.174 473.859 397.788 537.549 416.024ZM348.032 549.835C357.41 593.466 391.882 637.665 433.185 659.02C530.094 709.121 646.869 656.646 673.574 550.994L674.819 546.062H806.571H938.32L937.72 549.835C937.39 551.909 936.537 558.566 935.824 564.63C914.839 743.341 773.4 894.873 594.061 930.789C345.491 980.564 104.604 804.928 79.5304 555.637L78.5676 546.062H212.893H347.221L348.032 549.835Z"
    fill="#040404"
  />
</svg>
